<svg viewBox="0 0 284 283" xmlns="http://www.w3.org/2000/svg"><g id="Page-1" stroke="none" stroke-width="1" fill="none" fill-rule="evenodd"><g id="Logo-2" transform="translate(0 -30)"><path id="Rectangle" fill="#1565C0" opacity=".2" transform="rotate(45 142.143 201.572)" d="M63.356 122.785l178.787-21.213-21.214 178.787-178.786 21.213z"/><path id="Rectangle" fill="#1565C0" opacity=".5" transform="rotate(45 142.143 171.572)" d="M63.356 92.785l178.787-21.213-21.214 178.787-178.786 21.213z"/><path id="Rectangle" fill="#1565C0" transform="rotate(45 142.143 141.572)" d="M63.356 62.785l178.787-21.213-21.214 178.787-178.786 21.213z"/><path d="M124.215 122.108c0-9.161 8.19-16.618 18.253-16.618 10.062 0 18.252 7.457 18.252 16.618 0 9.162-8.19 16.62-18.252 16.62-10.063 0-18.253-7.458-18.253-16.62zM142.006 77c-13.358 0-25.914 4.736-35.358 13.335-17.479 15.912-19.65 45.85-4.704 63.988L142.006 207l40.002-52.604c15.004-18.211 12.832-48.15-4.644-64.06C167.92 81.735 155.362 77 142.006 77z" id="Fill-1" fill="#FFF"/></g></g></svg>